<?xml version="1.0" standalone="no"?>
<!DOCTYPE svg PUBLIC "-//W3C//DTD SVG 20010904//EN"
 "http://www.w3.org/TR/2001/REC-SVG-20010904/DTD/svg10.dtd">
<svg version="1.0" xmlns="http://www.w3.org/2000/svg"
 width="1280.000000pt" height="1280.000000pt" viewBox="0 0 1280.000000 1280.000000"
 preserveAspectRatio="xMidYMid meet">
<metadata>
Created by potrace 1.14, written by Peter Selinger 2001-2017
</metadata>
<g transform="translate(0.000000,1280.000000) scale(0.100000,-0.100000)"
fill="#000000" stroke="none">
<path d="M6403 12780 c-13 -11 -23 -31 -23 -45 0 -22 -4 -23 -57 -24 -32 0
-74 -2 -93 -5 -19 -3 -51 -7 -70 -10 -89 -13 -245 -54 -307 -82 -17 -8 -35
-14 -40 -14 -5 0 -36 -16 -69 -36 -53 -33 -63 -35 -95 -27 -34 9 -113 9 -149
1 -51 -12 -206 -110 -290 -183 -65 -56 -220 -219 -220 -231 0 -7 -4 -14 -9
-16 -27 -10 -119 -187 -146 -283 -38 -130 -25 -161 37 -90 52 61 164 175 170
175 2 0 4 -29 3 -64 -2 -96 7 -150 26 -154 11 -2 20 7 25 25 7 22 10 10 14
-57 3 -47 4 -87 3 -89 -1 -2 -23 11 -49 28 -84 55 -158 41 -199 -39 -41 -81
-88 -267 -89 -358 -1 -26 -5 -41 -12 -38 -6 2 -11 -2 -11 -9 0 -7 6 -11 12 -8
7 2 15 -7 17 -22 6 -28 -15 -46 -42 -38 -13 4 -13 3 -1 -5 8 -6 20 -8 28 -5 9
4 11 0 6 -13 -4 -12 -3 -15 6 -10 7 5 10 14 7 22 -3 8 -2 14 2 14 4 0 16 -21
27 -47 27 -64 29 -73 10 -43 l-16 25 7 -25 c5 -20 4 -22 -6 -13 -7 7 -21 9
-34 4 -19 -6 -35 -7 -78 -2 -14 1 -1 16 15 16 7 1 15 -3 18 -8 4 -5 10 -4 13
2 4 6 2 11 -4 11 -6 0 -8 5 -5 11 5 7 14 4 26 -7 18 -16 19 -16 13 -1 -3 9
-10 17 -16 17 -5 0 -7 4 -4 9 9 15 -22 33 -43 26 -17 -5 -20 -3 -15 12 5 15 4
16 -5 3 -9 -13 -11 -13 -11 3 0 10 7 20 15 23 21 8 19 19 -3 21 -14 1 -19 -6
-20 -28 0 -16 4 -31 9 -34 5 -4 9 -15 9 -26 0 -11 -4 -18 -9 -14 -6 3 -15 -4
-21 -15 -7 -13 -7 -20 0 -20 5 0 10 7 10 16 0 8 5 12 11 9 6 -4 8 -10 5 -13
-3 -3 0 -12 7 -20 10 -13 9 -15 -11 -10 -12 4 -20 2 -17 -2 3 -5 1 -11 -5 -15
-5 -3 -10 -1 -10 5 0 7 -7 5 -16 -4 -8 -9 -20 -17 -25 -17 -16 -2 -23 -5 -63
-22 -21 -9 -42 -17 -46 -17 -4 0 -13 -7 -20 -15 -14 -17 -30 -20 -30 -5 0 27
-90 80 -122 72 -3 -1 -20 -4 -37 -7 -42 -7 -177 -58 -230 -86 -41 -23 -100
-74 -146 -130 -32 -37 -72 -65 -170 -121 -790 -445 -1233 -902 -1480 -1528
-62 -159 -145 -426 -162 -520 -2 -14 -6 -33 -9 -42 -3 -9 -7 -27 -9 -40 -3
-13 -9 -45 -15 -73 -6 -27 -12 -59 -14 -70 -2 -11 -7 -38 -11 -60 -9 -49 -15
-81 -20 -120 -2 -16 -4 -30 -5 -30 -1 0 -3 -16 -6 -35 -2 -19 -11 -82 -20
-140 -9 -58 -17 -123 -19 -145 -2 -22 -6 -65 -10 -95 -11 -86 -14 -118 -21
-220 -9 -121 -5 -108 -38 -159 -50 -78 -62 -120 -61 -201 3 -97 2 -93 25 -118
43 -46 84 -147 95 -237 11 -88 69 -175 130 -195 21 -7 36 -20 40 -33 4 -12 15
-40 24 -62 10 -22 29 -65 42 -95 58 -134 212 -431 265 -512 13 -21 24 -40 24
-43 0 -3 22 -39 50 -81 27 -41 50 -80 50 -85 0 -5 5 -9 10 -9 6 0 10 -6 10
-14 0 -8 3 -16 8 -18 4 -1 19 -21 34 -43 36 -53 86 -123 98 -138 6 -7 58 -73
116 -147 59 -74 122 -151 140 -170 38 -40 39 -54 5 -200 -5 -25 -12 -56 -15
-70 -7 -35 -11 -53 -35 -150 -11 -47 -22 -98 -25 -115 -3 -16 -8 -41 -11 -55
-53 -234 -37 -469 44 -644 17 -37 48 -94 68 -125 54 -81 179 -202 246 -235 31
-16 64 -41 73 -55 27 -43 203 -211 221 -211 3 0 14 -6 22 -14 29 -25 145 -84
206 -104 249 -82 528 85 455 273 -6 16 -11 52 -11 80 -1 53 -26 109 -60 133
-18 13 -28 39 -10 28 4 -3 30 -8 57 -11 27 -3 63 -7 79 -10 76 -9 141 -17 155
-19 8 -1 42 -6 75 -10 33 -4 71 -10 85 -12 14 -2 68 -11 120 -19 119 -19 287
-50 405 -75 50 -10 101 -21 115 -23 14 -3 36 -8 50 -11 14 -3 61 -13 105 -22
109 -22 109 -22 116 -23 8 -1 4 -110 -6 -185 -14 -101 -22 -137 -56 -244 -35
-111 -38 -186 -9 -242 19 -38 76 -90 98 -90 7 0 9 -17 6 -47 -2 -27 -6 -79 -8
-118 -3 -38 -5 -72 -5 -75 -1 -3 -108 -5 -239 -5 -207 -1 -368 -7 -507 -20
-22 -2 -76 -7 -120 -10 -120 -10 -164 -15 -233 -26 -34 -5 -84 -12 -110 -15
-26 -3 -54 -7 -62 -9 -8 -3 -42 -7 -75 -10 -37 -4 -65 -12 -72 -21 -17 -23
-93 -14 -122 15 -12 12 -25 20 -29 17 -4 -2 -48 -7 -97 -11 -163 -13 -159 -13
-345 -30 -30 -3 -90 -8 -134 -10 -82 -5 -152 -20 -160 -34 -3 -5 4 -17 15 -27
15 -13 36 -18 82 -18 69 1 316 11 447 20 47 3 114 7 150 9 36 2 94 6 130 9
l65 6 22 -50 22 -50 -22 1 c-12 1 -94 -2 -182 -6 -88 -4 -157 -5 -154 -1 3 4
26 13 50 20 l44 14 -70 2 c-290 10 -504 -3 -565 -35 -14 -7 -43 -16 -65 -19
-22 -4 -48 -9 -57 -12 -9 -3 -25 -7 -36 -9 -11 -2 -40 -13 -65 -24 -25 -12
-51 -21 -57 -21 -6 0 -21 -6 -33 -14 -12 -8 -42 -17 -67 -20 -106 -14 -259
-68 -284 -101 -7 -9 -40 -16 -91 -20 -44 -4 -91 -8 -105 -10 -14 -2 -63 -7
-110 -10 -47 -4 -87 -8 -90 -10 -3 -2 -43 -6 -90 -10 -47 -4 -93 -9 -102 -10
-9 -2 -48 -6 -85 -10 -37 -3 -81 -8 -98 -10 -16 -2 -61 -7 -100 -10 -38 -4
-81 -8 -95 -10 -29 -5 -135 -16 -265 -30 -238 -24 -363 -48 -372 -70 -7 -21
27 -65 56 -72 30 -8 220 -7 283 1 88 11 224 27 263 31 22 2 72 7 110 10 39 4
81 8 95 10 14 1 59 5 101 9 42 4 87 9 100 11 13 2 60 7 104 10 44 4 103 9 130
11 28 3 70 6 95 8 56 5 146 15 230 26 35 5 66 7 68 5 3 -2 12 -1 21 4 9 4 34
2 56 -5 39 -12 39 -13 10 -14 -16 -1 -37 -3 -45 -5 -8 -2 -31 -6 -50 -9 -19
-4 -42 -9 -50 -11 -8 -2 -32 -6 -53 -9 -79 -12 -112 -18 -117 -21 -3 -2 -25
-6 -49 -10 -61 -9 -91 -22 -91 -40 0 -9 -7 -18 -16 -22 -8 -3 -19 -16 -24 -28
-4 -12 -14 -22 -22 -22 -14 0 -66 -7 -208 -28 -119 -17 -168 -24 -211 -30 -19
-3 -43 -6 -54 -9 -31 -6 -97 -16 -132 -20 -34 -5 -73 -22 -73 -34 0 -4 11 -24
25 -45 35 -51 68 -65 140 -60 l60 4 24 -45 c32 -62 122 -146 156 -146 16 0 28
-7 31 -17 13 -44 52 -109 90 -149 49 -52 99 -75 151 -69 21 2 66 7 100 10 35
3 82 9 105 12 24 4 141 7 261 6 l217 0 30 -34 c16 -19 30 -37 30 -41 0 -5 -15
-8 -34 -8 -28 0 -38 6 -53 30 -9 17 -25 32 -34 35 -10 3 -59 -1 -111 -9 -51
-8 -111 -17 -133 -21 -23 -3 -50 -7 -60 -9 -11 -2 -40 -7 -65 -10 -25 -3 -54
-8 -65 -10 -11 -2 -40 -7 -65 -10 -25 -3 -54 -8 -65 -10 -11 -2 -51 -9 -90
-15 -38 -6 -81 -13 -95 -15 -14 -3 -35 -5 -47 -5 -29 -1 -29 -20 -2 -55 20
-25 25 -27 78 -22 31 3 90 8 131 12 41 3 89 7 105 9 17 1 36 -2 43 -8 31 -25
246 -13 263 14 4 7 78 11 200 11 252 0 239 1 239 -20 0 -44 77 -170 144 -234
37 -36 117 -66 166 -63 42 2 176 13 245 19 17 2 66 7 109 10 43 4 86 9 95 11
9 1 52 6 95 10 43 4 86 8 95 10 9 1 52 6 96 10 44 4 90 9 102 10 14 1 26 -6
34 -22 23 -44 72 -72 125 -73 27 0 428 2 890 5 834 5 842 5 847 -15 4 -15 0
-20 -16 -21 -154 -6 -227 -8 -367 -13 -91 -4 -197 -8 -236 -11 -39 -3 -104 -7
-145 -9 -100 -6 -241 -17 -264 -20 -34 -5 -29 -26 7 -27 18 0 60 -2 93 -4 157
-9 428 -17 705 -20 279 -4 306 -6 320 -22 38 -44 77 -56 167 -49 47 4 88 7 91
7 21 3 28 -4 30 -27 6 -70 95 -189 167 -224 40 -19 55 -21 118 -15 39 4 79 9
88 10 9 2 40 6 70 10 133 15 183 22 274 35 33 5 87 11 120 15 33 3 71 8 85 10
14 2 52 7 85 10 33 3 76 8 95 10 19 2 62 6 95 10 33 3 71 8 85 10 14 2 57 6
95 10 39 3 86 8 105 10 19 2 60 7 90 10 30 3 71 7 90 10 19 2 62 7 95 10 45 5
64 12 77 28 14 18 20 19 41 10 39 -18 229 35 582 162 88 32 171 62 185 68 14
5 30 11 35 13 11 2 328 129 360 144 67 30 136 60 140 60 2 0 32 13 67 29 35
16 110 50 168 76 137 62 343 167 448 227 46 26 88 48 92 48 28 0 36 102 15
200 -3 14 -8 41 -11 60 -2 19 -9 55 -14 80 -11 52 -20 123 -23 196 -2 57 -32
104 -95 151 -20 15 -45 35 -54 44 -29 25 -188 113 -248 136 -78 30 -183 62
-227 69 -21 3 -40 7 -42 9 -2 2 30 19 70 38 41 19 137 65 214 103 77 37 142
68 145 69 6 1 748 372 775 388 11 7 58 35 104 62 149 90 174 104 343 190 91
46 190 97 218 113 l51 29 4 80 c2 44 6 97 9 119 3 21 8 66 11 99 4 33 8 69 10
80 13 96 18 134 20 155 1 14 6 48 10 75 6 42 3 57 -14 87 -23 38 -118 105
-198 139 -26 11 -57 24 -68 29 -11 5 -67 25 -125 44 -58 20 -150 51 -205 69
-108 37 -364 120 -380 123 -13 3 -230 68 -310 93 -139 44 -154 42 -420 -56
-184 -69 -252 -93 -475 -172 -96 -34 -191 -68 -210 -76 -43 -17 -180 -65 -186
-65 -2 0 -4 7 -4 15 0 27 -32 109 -88 223 -38 78 -55 125 -54 149 1 20 -4 45
-10 57 -6 11 -12 46 -13 76 -1 51 -36 150 -53 150 -4 0 -7 31 -8 70 -1 41 -6
76 -14 85 -7 8 -10 18 -6 22 3 3 -1 15 -11 25 -16 18 -14 18 48 13 35 -2 98
-7 139 -10 41 -3 96 -8 121 -10 180 -17 687 -31 819 -23 27 2 50 35 66 94 15
58 17 67 30 129 5 30 27 125 59 260 9 39 18 77 20 85 2 12 64 288 82 365 2 11
6 31 9 45 2 14 11 55 19 92 8 36 18 83 21 105 3 21 8 41 11 46 2 4 6 20 9 35
5 29 33 165 40 197 3 11 7 31 10 45 2 14 13 66 24 115 11 50 22 99 24 110 3
11 9 40 15 65 5 25 12 56 14 70 3 14 8 36 11 50 3 14 8 37 11 53 7 39 15 76
26 125 5 23 12 59 15 78 3 20 8 46 10 58 11 56 31 173 49 286 1 8 -5 26 -14
40 -9 13 -15 27 -15 30 3 10 -66 182 -76 190 -14 11 -19 43 -10 60 13 23 33
120 56 265 3 17 8 41 10 55 3 14 8 66 11 117 5 88 7 92 33 103 40 16 116 96
140 146 42 86 35 155 -21 215 -52 56 -65 82 -79 159 -7 41 -26 129 -42 195
-17 66 -31 127 -33 135 -25 110 -135 440 -192 575 -28 66 -176 369 -196 400
-6 10 -37 58 -67 105 -30 47 -57 90 -59 95 -2 6 -13 22 -25 36 -12 14 -30 38
-41 53 -35 50 -148 179 -215 246 -213 212 -461 369 -745 470 -121 44 -119 43
-125 45 -3 1 -23 7 -46 13 -29 9 -45 21 -57 44 -52 98 -72 119 -151 157 -103
49 -224 75 -361 75 -101 1 -126 -2 -155 -18 -41 -23 -40 -23 -155 -32 -115 -8
-199 -8 -355 0 -69 4 -172 9 -229 11 -57 2 -106 6 -108 9 -3 2 4 17 14 32 25
39 25 269 -1 327 -33 74 -111 131 -174 125 l-36 -3 -24 75 c-13 41 -31 91 -40
110 -9 19 -18 39 -21 44 -2 5 2 6 8 2 6 -4 14 0 18 10 4 12 -2 24 -20 38 -16
13 -30 38 -36 66 -12 53 -56 182 -75 225 -9 18 -13 50 -10 80 4 56 -12 139
-34 173 -17 25 -11 27 41 8 64 -22 178 -12 243 22 75 39 80 96 6 76 -56 -15
-155 -8 -226 16 -63 21 -176 85 -176 99 0 17 -53 60 -98 81 -64 31 -94 39
-171 45 -58 6 -69 4 -88 -15z m-1659 -1729 c3 -4 -3 -16 -13 -25 -17 -16 -19
-16 -25 -1 -3 9 -4 21 0 26 7 11 31 12 38 0z m4099 -3430 c20 -11 22 -20 23
-94 1 -79 4 -106 19 -174 7 -29 2 -38 -52 -100 -33 -37 -69 -78 -79 -90 -10
-13 -22 -23 -26 -23 -4 0 -6 33 -3 73 2 39 7 114 10 166 3 52 7 97 9 100 2 3
6 29 10 56 3 28 10 65 15 83 5 18 10 36 10 40 1 4 4 16 7 27 6 16 9 13 21 -17
8 -19 24 -40 36 -47z m-4483 -501 c69 -204 175 -438 272 -599 21 -34 38 -65
38 -67 0 -2 21 -34 47 -72 132 -191 298 -380 423 -481 25 -20 50 -41 56 -46 6
-6 14 -43 18 -83 4 -40 9 -78 11 -85 2 -7 7 -32 10 -57 10 -73 15 -104 19
-127 3 -11 8 -43 12 -70 3 -26 8 -57 11 -68 2 -11 6 -36 9 -55 2 -19 8 -55 13
-80 16 -77 30 -153 35 -190 3 -19 8 -46 11 -60 4 -14 7 -34 9 -45 2 -11 6 -29
9 -40 3 -11 9 -38 12 -60 3 -23 7 -50 9 -60 8 -35 45 -219 50 -245 15 -82 37
-178 45 -195 25 -57 48 -210 32 -219 -3 -2 -37 4 -76 14 -38 9 -119 27 -180
40 -170 34 -158 28 -162 89 -2 38 -15 79 -44 140 -38 78 -55 107 -99 165 -31
41 -134 138 -174 164 -22 15 -43 30 -46 33 -7 9 -212 109 -230 113 -8 2 -32
11 -52 20 -35 15 -43 26 -38 51 1 5 1 73 1 150 0 134 -3 190 -16 300 -15 124
-19 153 -30 205 -3 14 -8 41 -11 60 -11 71 -84 348 -117 445 -64 187 -154 390
-213 480 -15 23 -15 25 1 25 10 0 38 11 64 25 83 46 127 146 130 298 1 20 7
30 21 34 10 3 22 14 25 24 4 10 10 19 15 19 14 0 -1 33 -22 48 -12 9 -17 22
-14 40 3 15 7 48 10 75 3 26 9 68 12 95 4 26 8 56 9 67 1 11 3 25 4 30 1 6 15
-33 31 -85 15 -52 38 -124 50 -160z"/>
<path d="M4374 11556 c1 -8 5 -18 8 -22 4 -3 5 1 4 10 -1 8 -5 18 -8 22 -4 3
-5 -1 -4 -10z"/>
<path d="M4554 11556 c1 -8 5 -18 8 -22 4 -3 5 1 4 10 -1 8 -5 18 -8 22 -4 3
-5 -1 -4 -10z"/>
<path d="M4456 11518 c3 -4 11 -5 19 -1 21 7 19 12 -4 10 -11 0 -18 -5 -15 -9z"/>
<path d="M4510 11496 c0 -2 8 -10 18 -17 15 -13 16 -12 3 4 -13 16 -21 21 -21
13z"/>
<path d="M4436 11407 c3 -10 9 -15 12 -12 3 3 0 11 -7 18 -10 9 -11 8 -5 -6z"/>
<path d="M4495 11381 c-3 -5 -2 -12 3 -15 5 -3 9 1 9 9 0 17 -3 19 -12 6z"/>
<path d="M4593 11376 c1 -6 -4 -10 -11 -8 -8 1 -11 -2 -7 -8 5 -8 13 -6 26 6
23 21 23 21 5 21 -8 0 -14 -5 -13 -11z"/>
<path d="M4635 11381 c-3 -5 -2 -12 3 -15 5 -3 9 1 9 9 0 17 -3 19 -12 6z"/>
<path d="M4326 11358 c3 -5 10 -6 15 -3 13 9 11 12 -6 12 -8 0 -12 -4 -9 -9z"/>
<path d="M4456 11338 c3 -5 10 -6 15 -3 13 9 11 12 -6 12 -8 0 -12 -4 -9 -9z"/>
<path d="M4540 11340 c-8 -5 -10 -10 -5 -10 6 0 17 5 25 10 8 5 11 10 5 10 -5
0 -17 -5 -25 -10z"/>
<path d="M4653 11313 c0 -8 4 -9 12 -3 6 5 23 7 37 5 15 -3 29 -2 31 2 3 5
-14 8 -37 9 -29 0 -43 -4 -43 -13z"/>
<path d="M4674 11289 c-3 -6 2 -18 12 -27 17 -16 17 -16 5 0 -7 9 -10 22 -6
28 3 5 4 10 1 10 -3 0 -8 -5 -12 -11z"/>
<path d="M4740 11296 c0 -2 7 -7 16 -10 8 -3 12 -2 9 4 -6 10 -25 14 -25 6z"/>
<path d="M4467 11279 c7 -7 15 -10 18 -7 3 3 -2 9 -12 12 -14 6 -15 5 -6 -5z"/>
<path d="M4517 11246 c20 -26 27 -28 17 -3 -3 8 -12 18 -20 21 -11 4 -10 0 3
-18z"/>
<path d="M4653 11247 c0 -8 6 -14 14 -14 9 0 10 4 2 14 -6 7 -12 13 -14 13 -1
0 -2 -6 -2 -13z"/>
<path d="M4755 11250 c3 -5 8 -10 11 -10 2 0 4 5 4 10 0 6 -5 10 -11 10 -5 0
-7 -4 -4 -10z"/>
<path d="M4560 11240 c-12 -7 -10 -9 7 -7 12 0 19 5 17 9 -6 10 -6 10 -24 -2z"/>
<path d="M4625 11239 c-4 -6 -5 -12 -2 -15 2 -3 7 2 10 11 7 17 1 20 -8 4z"/>
<path d="M4723 11233 c9 -2 14 -9 11 -15 -4 -7 -2 -8 5 -4 15 10 4 26 -17 25
-15 -1 -15 -2 1 -6z"/>
<path d="M4680 11215 c-11 -13 -15 -13 -21 -3 -6 9 -9 9 -9 1 0 -21 17 -23 35
-3 10 11 16 20 13 20 -3 0 -11 -7 -18 -15z"/>
<path d="M4536 11198 c3 -5 10 -6 15 -3 13 9 11 12 -6 12 -8 0 -12 -4 -9 -9z"/>
<path d="M4617 11196 c-3 -8 -3 -17 0 -20 10 -10 33 -7 33 4 0 5 -7 7 -15 4
-11 -5 -13 -2 -9 10 3 9 4 16 1 16 -3 0 -7 -6 -10 -14z"/>
<path d="M4593 11168 c1 -15 6 -23 11 -18 4 4 4 16 -2 26 -9 16 -10 14 -9 -8z"/>
<path d="M4730 11180 c-9 -6 -10 -10 -3 -10 6 0 15 5 18 10 8 12 4 12 -15 0z"/>
<path d="M4540 11170 c0 -5 -7 -7 -15 -4 -8 4 -15 1 -15 -7 0 -7 3 -9 7 -6 3
4 11 3 17 -3 8 -6 12 -3 13 11 1 10 0 19 -3 19 -2 0 -4 -4 -4 -10z"/>
<path d="M4659 11168 c-1 -7 -1 -17 0 -21 1 -5 -7 -6 -17 -3 -20 7 -50 -19
-38 -31 3 -3 6 -1 6 6 0 7 9 3 22 -9 12 -11 24 -18 26 -15 3 2 -6 14 -19 25
l-24 20 24 -3 c18 -1 24 4 27 21 2 12 2 22 -1 22 -3 0 -6 -6 -6 -12z"/>
<path d="M4473 11155 c0 -8 4 -12 9 -9 4 3 8 9 8 15 0 5 -4 9 -8 9 -5 0 -9 -7
-9 -15z"/>
<path d="M4681 11154 c0 -11 3 -14 6 -6 3 7 2 16 -1 19 -3 4 -6 -2 -5 -13z"/>
<path d="M4710 11148 c0 -6 3 -8 7 -5 3 4 14 -4 23 -19 14 -21 18 -23 24 -9 3
9 2 13 -4 10 -5 -3 -14 4 -20 15 -12 22 -30 27 -30 8z"/>
<path d="M4576 11127 c3 -10 9 -15 12 -12 3 3 0 11 -7 18 -10 9 -11 8 -5 -6z"/>
<path d="M4716 11105 c-9 -26 -7 -32 5 -12 6 10 9 21 6 23 -2 3 -7 -2 -11 -11z"/>
<path d="M4575 11090 c-3 -5 -2 -18 4 -27 7 -14 9 -12 8 10 -2 30 -3 31 -12
17z"/>
<path d="M4613 11086 c0 -8 11 -13 24 -13 27 0 26 0 -3 15 -16 8 -21 8 -21 -2z"/>
<path d="M4650 11056 c0 -2 7 -7 16 -10 8 -3 12 -2 9 4 -6 10 -25 14 -25 6z"/>
<path d="M4784 11039 c-3 -6 -1 -16 5 -22 9 -9 10 -7 5 7 -6 15 -4 17 6 11 9
-5 11 -4 6 3 -9 15 -13 15 -22 1z"/>
<path d="M4638 11033 c7 -3 16 -2 19 1 4 3 -2 6 -13 5 -11 0 -14 -3 -6 -6z"/>
<path d="M2118 2203 c-33 -5 -36 -25 -7 -54 15 -15 27 -19 42 -14 12 4 32 7
45 8 27 1 28 7 1 41 -20 26 -27 27 -81 19z"/>
<path d="M2642 2193 c2 -12 -4 -18 -17 -19 -82 -5 -215 -33 -253 -53 -9 -5
-57 -12 -107 -15 -49 -4 -108 -9 -130 -11 -22 -2 -69 -7 -105 -10 -107 -10
-140 -14 -245 -36 -55 -11 -120 -23 -145 -26 -25 -3 -47 -7 -50 -10 -4 -4 266
4 425 12 50 3 146 8 215 11 367 16 539 25 585 29 22 2 50 4 63 4 19 1 22 5 17
21 -4 11 -2 21 4 21 6 1 14 2 19 3 4 1 40 8 80 16 39 7 72 18 72 24 0 7 -7 22
-16 34 -15 21 -20 22 -215 22 -184 0 -200 -1 -197 -17z"/>
<path d="M4349 386 c-2 -2 -26 -6 -54 -9 -27 -4 -63 -9 -80 -12 -16 -3 -52
-10 -80 -15 -27 -5 -61 -13 -74 -17 -22 -9 -23 -10 -5 -27 16 -16 34 -18 188
-13 121 3 186 9 224 21 86 28 65 61 -43 65 -33 2 -62 4 -66 7 -3 2 -8 2 -10 0z"/>
<path d="M4963 202 c-35 -3 -41 -6 -36 -20 4 -9 11 -20 16 -24 17 -11 324 -14
335 -3 10 10 -12 38 -34 43 -23 5 -222 8 -281 4z"/>
</g>
</svg>
